<svg xmlns="http://www.w3.org/2000/svg" width="768" height="560" viewBox="0 0 768 560"><g transform="translate(5585 -10212)"><g opacity="0"><rect width="768" height="560" transform="translate(-5585 10212)" fill="#fff"/><path d="M1,1V559H767V1H1M0,0H768V560H0Z" transform="translate(-5585 10212)" fill="#707070"/></g><g transform="translate(-5572.878 10273.704)"><path d="M209.322-54.863a68.88,68.88,0,0,1-16.267-1.879,70.448,70.448,0,0,1-13.885-4.948c-8.546-4.051-16.105-9.492-23.415-14.753-4.667-3.359-9.492-6.832-14.491-9.875a80.383,80.383,0,0,0-15.906-7.629,64.962,64.962,0,0,0-19.123-3.448,80.063,80.063,0,0,0-11.39.475A104.592,104.592,0,0,0,81.909-94.6C73.257-92.513,67-93,61.481-93.434a47.961,47.961,0,0,0-11.352.025c-2.192.333-18.776,1.962-36.322,3.446-15.554,1.315-35.313,2.815-41.116,2.492-5.906-.329-22.448-4.662-50.574-13.249-22.053-6.732-50.981-16.017-85.981-27.6-59.577-19.709-116.879-39.505-117.451-39.7a2.5,2.5,0,0,1-1.546-3.18,2.5,2.5,0,0,1,3.18-1.546c.572.2,57.846,19.984,117.392,39.683,34.963,11.566,63.853,20.839,85.868,27.56,13.054,3.985,23.8,7.1,31.932,9.269,8.815,2.347,14.689,3.615,17.458,3.769,4.3.239,18.656-.642,40.417-2.482,17.451-1.476,33.866-3.084,35.993-3.407a51.86,51.86,0,0,1,12.492-.066c5.4.422,10.985.859,18.865-1.045a109.607,109.607,0,0,1,13.557-2.423,85.074,85.074,0,0,1,12.1-.5,69.892,69.892,0,0,1,20.573,3.712c12.246,4.173,22.139,11.293,31.705,18.178,7.129,5.131,14.5,10.436,22.636,14.293a65.511,65.511,0,0,0,12.91,4.6,63.942,63.942,0,0,0,15.1,1.741c11.647,0,32.121-5.562,60.854-16.531,23.157-8.84,51.613-21.174,84.578-36.657,56.167-26.381,106.581-53.1,107.084-53.37a2.5,2.5,0,0,1,3.38,1.036,2.5,2.5,0,0,1-1.036,3.38c-.5.267-51.026,27.047-107.3,53.479-33.076,15.536-61.647,27.918-84.92,36.8-13.857,5.29-25.976,9.387-36.023,12.177-5.434,1.509-10.376,2.668-14.688,3.443A69.087,69.087,0,0,1,209.322-54.863Z" transform="translate(280.577 170.382)" fill="#75584A"/><path d="M701.578,92.084a2.517,2.517,0,0,1-.336-.023,77.386,77.386,0,0,1-31.582-11.455A100.135,100.135,0,0,1,654.2,68.444a150.062,150.062,0,0,1-15.45-17.377c-15.826-20.62-27.968-39.445-42.028-61.242-4.187-6.491-8.517-13.2-13.195-20.355-5.346-8.173-10.506-15.394-15.337-21.463a140.683,140.683,0,0,0-12.956-14.373c-7.1-6.737-13.636-10.885-19.969-12.683-4.818-1.368-12.862-1.6-23.909-.688-9.245.763-18.208,2.126-23.563,2.941l-.479.073c-.395.06-1.428.282-2.736.564-5.8,1.248-19.382,4.17-33.026,4.935a83.364,83.364,0,0,1-20.012-.948,37.641,37.641,0,0,1-8.688-2.688,21.818,21.818,0,0,1-6.934-4.9,7.339,7.339,0,0,1-1.932-6.411c.541-3.174,3-6.67,7.521-10.688a120.856,120.856,0,0,1,15.681-11.3c12.511-7.868,28.79-16.5,44.533-24.845,11.226-5.952,21.83-11.574,31.077-16.892,10.221-5.879,17.213-10.517,21.375-14.18a2.5,2.5,0,0,1,3.528.225,2.5,2.5,0,0,1-.225,3.528c-9.768,8.6-30.969,19.836-53.414,31.736-15.663,8.3-31.858,16.89-44.213,24.66A116.167,116.167,0,0,0,424.83-93.121c-4.467,3.972-5.682,6.43-5.914,7.792a2.354,2.354,0,0,0,.677,2.179c2.674,2.9,7.012,4.938,12.892,6.068a78.47,78.47,0,0,0,18.789.866c13.254-.743,26.568-3.608,32.254-4.831,1.5-.323,2.491-.536,3.036-.619l.479-.073c5.418-.824,14.487-2.2,23.9-2.981,5.255-.434,9.937-.617,13.915-.544a47.817,47.817,0,0,1,11.771,1.4c7.128,2.024,14.338,6.559,22.043,13.864A145.653,145.653,0,0,1,572.1-55.107c4.927,6.19,10.179,13.538,15.609,21.84,4.687,7.165,9.021,13.884,13.212,20.382,14,21.7,26.092,40.45,41.793,60.908a145.073,145.073,0,0,0,14.928,16.8,95.132,95.132,0,0,0,14.68,11.556,72.486,72.486,0,0,0,29.582,10.73,2.5,2.5,0,0,1-.33,4.978Z" transform="translate(-180.404 237.013)" fill="#75584A"/><path d="M99.022.918q-1.6,0-3.3-.147c-3.969-.344-11.7-1.924-26-7.5A381.257,381.257,0,0,1,34.576-22.772,357.6,357.6,0,0,1,.238-42.749c-11.029-7.38-18.9-13.954-23.407-19.539-8.692-10.781-17.24-20.848-24.72-29.112a208.472,208.472,0,0,0-16.885-17.112,161.468,161.468,0,0,0-21.389-15.377A192.478,192.478,0,0,0-107.627-135c-14.033-6.216-26.934-10.165-37.3-13.338-5.09-1.558-9.486-2.9-12.924-4.2-8.95-3.37-20.721-6.284-34.984-8.662-11.472-1.912-24.557-3.48-38.892-4.66-24.448-2.012-44.3-2.2-44.5-2.2a2.5,2.5,0,0,1-2.479-2.52,2.5,2.5,0,0,1,2.5-2.479h.021c.2,0,20.205.186,44.83,2.211,14.478,1.191,27.708,2.775,39.321,4.711,14.592,2.431,26.685,5.432,35.943,8.918,3.291,1.239,7.617,2.563,12.626,4.1a323.079,323.079,0,0,1,37.86,13.547,197.5,197.5,0,0,1,22.022,11.406,166.478,166.478,0,0,1,22.053,15.856c8.818,7.535,25.007,25.5,42.249,46.888a64.362,64.362,0,0,0,9.015,8.763C-6.564-53.61-2.1-50.327,3.019-46.9A352.546,352.546,0,0,0,36.866-27.217C61.812-14.366,85.64-5.121,96.158-4.21c14.944,1.294,18.305-7.369,20.529-13.1a27.281,27.281,0,0,1,1.209-2.825,4.464,4.464,0,0,1,2.682-2.435,11.059,11.059,0,0,1,4.646.08c3.317.509,8.331,1.278,18.695-1.624,3.985-1.116,6.775-2.879,8.53-5.392a19.441,19.441,0,0,0,2.667-7.024,24.97,24.97,0,0,1,1.119-3.862,6.761,6.761,0,0,1,2.836-3.444c2.437-1.4,4.8-1.466,7.534-1.538,3.887-.1,9.21-.239,18.875-4.06a17.013,17.013,0,0,0,9.057-7.414,28.688,28.688,0,0,0,2.812-9.051,31.955,31.955,0,0,1,1.127-4.729,7.1,7.1,0,0,1,3.05-4c2.352-1.356,5.048-1.593,8.169-1.867a47.9,47.9,0,0,0,22.2-6.9,22.135,22.135,0,0,0,8.021-7.72,24.248,24.248,0,0,0,3.119-8.692,29.9,29.9,0,0,0-.045-10.07l-.133-.611.17-.6a9.747,9.747,0,0,1,1.232-2.487,23.761,23.761,0,0,1,4.67-5.106A48.631,48.631,0,0,1,259-125.023a99.616,99.616,0,0,1,17.484-6.31c28.329-7.624,188.654-49.969,190.271-50.4a2.5,2.5,0,0,1,3.056,1.779,2.5,2.5,0,0,1-1.779,3.056c-1.616.427-161.93,42.769-190.248,50.39a96.132,96.132,0,0,0-16.045,5.714,45.976,45.976,0,0,0-9.044,5.479,17.308,17.308,0,0,0-4.672,5.19A35.947,35.947,0,0,1,247.963-99a29.221,29.221,0,0,1-3.776,10.474,27.077,27.077,0,0,1-9.8,9.46,56.678,56.678,0,0,1-14.241,5.991,58.1,58.1,0,0,1-10.014,1.562c-2.737.24-4.715.414-6.109,1.218-.852.491-1.335,3.058-1.761,5.322-1.157,6.145-2.9,15.431-14.945,20.19-10.488,4.146-16.563,4.3-20.583,4.408-2.586.067-3.885.132-5.166.871-.716.413-1.158,2.3-1.585,4.116a24.085,24.085,0,0,1-3.436,8.745,16.663,16.663,0,0,1-4.35,4.253,23.76,23.76,0,0,1-6.931,3.09c-11.4,3.193-17.286,2.291-20.8,1.752a15.1,15.1,0,0,0-2.157-.243c-.277.527-.663,1.522-.961,2.29-1.156,2.98-2.9,7.483-6.714,11a19.513,19.513,0,0,1-7.576,4.307A27.314,27.314,0,0,1,99.022.918Z" transform="translate(276.203 438.172)" fill="#75584A"/></g></g></svg>