<svg xmlns="http://www.w3.org/2000/svg" width="1920" height="1000" viewBox="0 0 1920 1000"><g transform="translate(6877 -9034)"><g opacity="0"><rect width="1920" height="1000" transform="translate(-6877 9034)" fill="#fff"/><path d="M1,1V999H1919V1H1M0,0H1920V1000H0Z" transform="translate(-6877 9034)" fill="#707070"/></g><g transform="translate(245.055 1196.193)"><path d="M944.26,116.594c-58.247,0-96.06-27.251-132.627-53.605C763.045,27.972,717.153-5.1,625.148,17.154c-21.287,5.15-36.742,3.94-50.378,2.872-9.628-.754-18.722-1.465-28.9.081C533.709,21.956,378.659,36.4,352.706,34.953,291.213,31.525-258.439-158.514-281.807-166.6a4,4,0,0,1-2.472-5.088,4,4,0,0,1,5.088-2.472c5.713,1.977,571.957,197.76,632.342,201.127C378.8,28.4,532.587,14.035,544.67,12.2c11.085-1.685,20.625-.938,30.724-.147,13.679,1.071,27.823,2.178,47.873-2.672C718.846-13.744,768.394,21.965,816.31,56.5c37.173,26.791,72.285,52.1,127.95,52.1,128.539,0,627.425-264.389,632.45-267.059a4,4,0,0,1,5.409,1.655,4,4,0,0,1-1.655,5.41C1559.878-140.459,1074.783,116.594,944.26,116.594Z" transform="translate(-6811.009 8073.5)" fill="#75584A"/><path d="M1043.981,281.584a4,4,0,0,1-3.855-2.94c-1.742-6.336-4.963-9.684-18.556-11.581-11.8-1.646-66.78-24.515-120.3-106.329C845.2,75.007,723.979,8.977,694.885.717c-29-8.233-94.979,1.8-119.816,5.582l-1.2.182c-1.159.176-3.235.636-6.06,1.256C542.881,13.2,467.022,29.825,432.566-7.5c-7.646-8.282-9.069-18.932-4.116-30.8,18.238-43.693,119.08-98.391,143.659-99.239a4,4,0,0,1,4.135,3.86,4,4,0,0,1-3.86,4.135c-22.178.765-120.141,55.011-136.552,94.325-3.764,9.019-2.91,16.31,2.611,22.291C469.789,21.029,542.277,5.143,566.1-.077c3.062-.671,5.314-1.159,6.57-1.35l1.2-.182c27.689-4.212,92.533-14.076,123.2-5.369,29.764,8.45,153.7,75.885,210.9,163.333,51.35,78.5,104.341,101.339,114.706,102.785,13.086,1.826,21.861,5.371,25.164,17.383a4,4,0,0,1-3.859,5.062Z" transform="translate(-6831.446 8222.512)" fill="#75584A"/><path d="M662.184,269.7q-3.906,0-8.212-.368c-55.637-4.823-248.084-97.876-295.733-157.056C315.493,59.182,275.519,14.719,253.918-3.764c-70.09-59.972-149-84.16-201.215-100.165-12.69-3.89-23.65-7.25-32.182-10.466-98.008-36.951-294.78-38.984-296.757-39a4,4,0,0,1-3.967-4.033,3.994,3.994,0,0,1,4.032-3.967c1.99.016,200.173,2.061,299.513,39.515,8.3,3.128,19.144,6.453,31.7,10.3C107.9-95.378,187.764-70.9,259.119-9.842c21.95,18.781,62.318,63.65,105.351,117.1,46.752,58.067,235.6,149.37,290.193,154.1,39.046,3.385,48.172-20.164,53.624-34.234,2.412-6.224,4.154-10.72,8.211-11.807,3.3-.884,6.565-.383,10.7.251,8.486,1.3,21.31,3.273,47.692-4.124,23.45-6.575,26.707-20.478,29.581-32.745,1.638-6.992,3.185-13.6,8.82-16.85,5.6-3.233,10.972-3.373,17.774-3.55,9.886-.257,23.426-.61,47.962-10.321,24.847-9.835,28.294-28.172,31.063-42.907,1.687-8.977,3.145-16.73,9.356-20.316,5.451-3.147,11.651-3.692,19.5-4.382,12.933-1.137,30.646-2.694,56.423-17.576,38.341-22.137,29.223-66.86,28.816-68.753l-.209-.971.269-.962c.337-1.193,9.09-29.44,82.083-49.111,70.83-19.088,471.706-125.11,475.747-126.178a4,4,0,0,1,4.89,2.844,4,4,0,0,1-2.845,4.89c-4.041,1.069-404.9,107.085-475.711,126.169-61.214,16.5-74.189,38.6-76.177,42.886,1.344,8.12,6.789,53.221-32.865,76.115-27.311,15.768-46.044,17.415-59.722,18.617-7.131.627-12.284,1.08-16.2,3.341-3.028,1.748-4.17,7.827-5.494,14.865-2.8,14.9-7.032,37.409-35.981,48.868-25.854,10.233-40.8,10.623-50.7,10.88-6.108.159-10.143.264-13.982,2.48-2.635,1.522-3.745,6.26-5.031,11.747-2.87,12.254-7.209,30.772-35.21,38.623-28.046,7.864-42.456,5.651-51.066,4.328-3.329-.511-5.734-.881-7.411-.431-.309.485-1.7,4.081-2.822,6.97C710.267,244.154,700.368,269.7,662.184,269.7Z" transform="translate(-6815.501 8506.805)" fill="#75584A"/></g></g></svg>