<svg xmlns="http://www.w3.org/2000/svg" width="120" height="60" viewBox="0 0 120 60"><g transform="translate(2642 676)"><rect width="120" height="60" transform="translate(-2642 -676)" fill="rgba(250,243,224,0)"/><text transform="translate(-2574.843 -633.5)" fill="#1e212d" font-size="32" font-family="HiraMaruProN-W4, Hiragino Maru Gothic ProN"><tspan x="0" y="0">i</tspan></text><path d="M-2901.131,120.561c-3.181,0-8.193-.022-13.5-.045-8.335-.036-16.954-.074-20.485-.038h-.036a3.091,3.091,0,0,1-2.176-.863,5.512,5.512,0,0,1-1.281-2.028,30.148,30.148,0,0,1-1.323-5.626,29.294,29.294,0,0,0-1.863-7.212c-1-2.085-2.358-3.056-4.284-3.056h-.013a3.747,3.747,0,0,0-3.689,2.5,24.308,24.308,0,0,0-1.441,6.325,25.4,25.4,0,0,1-1.526,6.636,6.028,6.028,0,0,1-1.873,2.44,5.2,5.2,0,0,1-3.159.966c-.541,0-3.111-.015-6.085-.031-4.093-.023-9.187-.052-10.662-.052a11.989,11.989,0,0,1-6.3-1.855,14.389,14.389,0,0,0-7.9-2.1h-.06a15.328,15.328,0,0,0-7.924,2.041,14.834,14.834,0,0,1-7.488,2h-8.934a.875.875,0,0,1-.875-.875.875.875,0,0,1,.875-.875h8.934a13.191,13.191,0,0,0,6.7-1.815,17.211,17.211,0,0,1,8.707-2.228h.064a16.07,16.07,0,0,1,8.737,2.316,10.261,10.261,0,0,0,5.47,1.644c1.48,0,6.577.029,10.672.052,2.972.017,5.539.031,6.076.031,3.368,0,4.07-3.226,4.826-8.538a25.43,25.43,0,0,1,1.586-6.815,6.236,6.236,0,0,1,1.965-2.517,5.528,5.528,0,0,1,3.308-1h.017a5.883,5.883,0,0,1,3.638,1.163,7.613,7.613,0,0,1,2.226,2.888,30.475,30.475,0,0,1,2.007,7.666,29.134,29.134,0,0,0,1.224,5.277c.638,1.6,1.324,1.8,1.852,1.791,3.542-.036,12.168,0,20.51.038,5.3.023,10.314.045,13.491.045a.875.875,0,0,1,.875.875A.875.875,0,0,1-2901.131,120.561Z" transform="translate(374.893 -753.151)" fill="#b56037"/><text transform="translate(-2627.132 -633.5)" fill="#1e212d" font-size="32" font-family="HiraMaruProN-W4, Hiragino Maru Gothic ProN"><tspan x="0" y="0">S</tspan></text><path d="M-2986.766,113.786a11.987,11.987,0,0,1-6.3-1.855,14.39,14.39,0,0,0-7.9-2.1h-.062a.875.875,0,0,1-.875-.873.875.875,0,0,1,.873-.877h.064a16.07,16.07,0,0,1,8.737,2.316,10.262,10.262,0,0,0,5.47,1.644.875.875,0,0,1,.875.875A.875.875,0,0,1-2986.766,113.786Z" transform="translate(387.13 -746.46)" fill="#b56037"/><text transform="translate(-2561.778 -633.5)" fill="#1e212d" font-size="32" font-family="HiraMaruProN-W4, Hiragino Maru Gothic ProN"><tspan x="0" y="0">N</tspan></text><text transform="translate(-2602.993 -633.5)" fill="#1e212d" font-size="32" font-family="HiraMaruProN-W4, Hiragino Maru Gothic ProN"><tspan x="0" y="0">P</tspan></text></g></svg>