<svg xmlns="http://www.w3.org/2000/svg" width="560" height="560" viewBox="0 0 560 560"><g transform="translate(4495 -11070)"><circle cx="280" cy="280" r="280" transform="translate(-4495 11070)" fill="#75584A"/><path d="M259.091,280.895H-32.4l75.51-88.67H55.843v-6.456H41.492V-3h286.3l-.354,181.905a3,3,0,0,1-1.74,2.718Zm-278.5-6h275.3l59.8-89.126H61.843v6.456H292.8l-36,49.018H24.474l31.369-36.306v-6.712H45.878Zm57-39.652H253.769l27.185-37.018H61.843v8.945Zm24.256-55.474H321.567a3,3,0,0,1-.128-.875l.336-173.031c-14.552,29.412-52.641,103.453-67.206,103.453H195.556c-1.2.162-3.587,5.075-4.609,7.172-2.474,5.082-4.812,9.882-9.249,9.882-4.534,0-6.689-5.917-11.692-22.827-1.6-5.409-3.9-13.182-5.492-16.238-.918,1.954-2.86,6.937-4.217,10.419-3.983,10.22-6.456,16-10.971,16-4.411,0-6.479-5.794-11.729-23.715-1.93-6.588-4.994-17.048-7.119-20.693-3.077,4.622-9.015,19.94-13.48,31.46-11.512,29.7-15.018,37.168-19.586,37.168-4.163,0-6.837-4.95-23.587-53.679-3.99-11.607-8.619-25.074-11.983-33.7Zm-14.351,0h8.351V42.011c0-1.343,0-4.91,3.087-5.426,4.011-.67,5.575,2.107,20.57,45.733,6.3,18.332,14.746,42.9,18.41,48.929,2.378-3.96,9-21.037,13.494-32.637,11.191-28.869,14.523-36.195,19.038-36.195,4.865,0,7.405,7.106,12.914,25.91,1.874,6.4,4.6,15.692,6.393,18.838,1.194-1.957,3.506-7.891,4.958-11.617,3.518-9.027,5.842-14.99,10.2-14.99,4.2,0,6.089,5.2,10.849,21.285,1.836,6.206,4.519,15.272,6.33,18.111a33.609,33.609,0,0,0,3.463-6.09c2.524-5.185,5.135-10.546,10-10.546H254.57c7.705,0,37.645-51.256,61.927-100.316h-269Z" transform="translate(-4375.939 11211.5)" fill="#faf3e0"/></g></svg>