<svg xmlns="http://www.w3.org/2000/svg" width="560" height="560" viewBox="0 0 560 560"><g transform="translate(4495 -10334)"><circle cx="280" cy="280" r="280" transform="translate(-4495 10334)" fill="#75584A"/><g transform="translate(-4423.485 10507.181)"><path d="M-5.832-104.506c-13.579,0-22.272-6.257-30.679-12.307-8.21-5.909-16.069-11.564-28.467-11.564a51.209,51.209,0,0,0-12.043,1.556,34.175,34.175,0,0,1-11.8.683,25.675,25.675,0,0,0-6.115,0c-2.525.383-37.44,3.686-43.649,3.34a64.977,64.977,0,0,1-10.577-2.239c-4.607-1.226-10.677-2.988-18.042-5.237-12.374-3.778-28.6-8.987-48.238-15.482-33.415-11.054-65.554-22.157-65.875-22.268a2.5,2.5,0,0,1-1.546-3.18,2.5,2.5,0,0,1,3.18-1.546c.32.111,32.432,11.2,65.816,22.248,19.6,6.483,35.789,11.68,48.125,15.446,19,5.8,25.405,7.152,27.435,7.265,2.329.13,10.534-.377,22.51-1.39,10.057-.85,19.058-1.742,20.111-1.9a30.381,30.381,0,0,1,7.255-.046,29.52,29.52,0,0,0,10.235-.559,54.511,54.511,0,0,1,14.684-1.671,40.273,40.273,0,0,1,11.855,2.14c7.022,2.393,12.636,6.434,18.066,10.342,8.121,5.845,15.791,11.365,27.758,11.365,8.122,0,28.78-5.155,81.067-29.713C106.709-154,134.97-168.981,135.252-169.13a2.5,2.5,0,0,1,3.38,1.036,2.5,2.5,0,0,1-1.036,3.38c-.283.15-28.637,15.179-60.218,30.012-18.572,8.723-34.619,15.677-47.694,20.669-7.8,2.978-14.631,5.287-20.3,6.861C2.929-105.378-2.049-104.506-5.832-104.506Z" transform="translate(280.543 170.382)" fill="#faf3e0"/><path d="M576.3-18.512a2.52,2.52,0,0,1-.336-.023,44.47,44.47,0,0,1-18.148-6.583c-6.132-3.864-11.895-9.367-17.618-16.825-8.9-11.6-15.722-22.172-23.62-34.415-2.347-3.638-4.774-7.4-7.395-11.408-5.727-8.756-11.01-15.451-15.7-19.9-3.852-3.653-7.366-5.894-10.742-6.852-1.77-.5-5.465-.971-13.017-.348-5.147.425-10.149,1.186-13.138,1.64l-.269.041c-.188.029-.81.162-1.468.3a124.741,124.741,0,0,1-18.689,2.79,47.823,47.823,0,0,1-11.49-.55c-4.134-.794-7.283-2.338-9.36-4.588a5.178,5.178,0,0,1-1.359-4.524c.352-2.063,1.8-4.17,4.57-6.629a68.805,68.805,0,0,1,8.938-6.447c7.05-4.434,16.2-9.283,25.042-13.973,11.833-6.273,24.069-12.76,29.2-17.278a2.5,2.5,0,0,1,3.528.225,2.5,2.5,0,0,1-.225,3.528c-5.575,4.906-17.518,11.238-30.163,17.942-8.765,4.647-17.829,9.452-24.722,13.788a64.12,64.12,0,0,0-8.278,5.951c-2.545,2.263-2.912,3.43-2.964,3.733-.02.119-.026.152.1.292,1.8,1.945,6.184,4.137,16.9,3.537a120.129,120.129,0,0,0,17.917-2.686c.891-.192,1.43-.308,1.769-.359l.268-.041c3.052-.464,8.161-1.242,13.479-1.68,6.757-.558,11.6-.387,14.793.521,4.172,1.184,8.364,3.812,12.816,8.034,5.043,4.782,10.423,11.583,16.446,20.791,2.63,4.021,5.061,7.79,7.412,11.435,7.838,12.151,14.607,22.645,23.384,34.081,5.357,6.98,10.695,12.1,16.317,15.639a39.571,39.571,0,0,0,16.149,5.858,2.5,2.5,0,0,1,2.145,2.811A2.5,2.5,0,0,1,576.3-18.512Z" transform="translate(-284.052 204.151)" fill="#faf3e0"/><path d="M-65.8-77.15q-.943,0-1.941-.086c-2.3-.2-6.745-1.1-14.885-4.277a214.914,214.914,0,0,1-19.813-9.042A201.632,201.632,0,0,1-121.8-101.822c-6.277-4.2-10.775-7.962-13.37-11.18-9.529-11.819-18.414-21.7-23.189-25.775a89.445,89.445,0,0,0-11.848-8.517,106.839,106.839,0,0,0-11.912-6.169A177.893,177.893,0,0,0-202.91-160.9c-2.872-.879-5.352-1.638-7.313-2.377a106.452,106.452,0,0,0-19.421-4.8c-6.406-1.068-13.716-1.943-21.728-2.6-13.667-1.124-24.741-1.226-24.851-1.227a2.5,2.5,0,0,1-2.479-2.52,2.5,2.5,0,0,1,2.5-2.48h.021c.112,0,11.371.1,25.22,1.244,8.149.67,15.6,1.563,22.14,2.653a111.284,111.284,0,0,1,20.361,5.056c1.813.683,4.224,1.421,7.015,2.275a182.1,182.1,0,0,1,21.353,7.643,111.847,111.847,0,0,1,12.472,6.46,94.458,94.458,0,0,1,12.512,9c4.992,4.266,14.124,14.4,23.833,26.438,2.245,2.785,6.484,6.3,12.258,10.163A196.587,196.587,0,0,0-100.146-95a209.841,209.841,0,0,0,19.34,8.829c5.919,2.309,10.714,3.713,13.5,3.954,3.4.294,5.891-.339,7.619-1.935a12.04,12.04,0,0,0,2.775-4.715,16.009,16.009,0,0,1,.732-1.7,4.639,4.639,0,0,1,.657-.957,3.156,3.156,0,0,1,1.533-.954,7.12,7.12,0,0,1,3.056.02c1.767.271,4.437.681,10.021-.883a7.186,7.186,0,0,0,4.179-2.595A10.065,10.065,0,0,0-35.41-99.5c.409-1.744.873-3.722,2.738-4.8a9.2,9.2,0,0,1,4.745-1.009,26.3,26.3,0,0,0,10.209-2.2c4.75-1.877,5.375-5.2,5.98-8.414.414-2.2.842-4.472,2.873-5.643a11.6,11.6,0,0,1,5.033-1.19A25.571,25.571,0,0,0,8.162-126.48a11.4,11.4,0,0,0,5.711-8.43,15.874,15.874,0,0,0-.015-5.235l-.133-.611.17-.6c.106-.376.782-2.373,3.659-4.8,3.515-2.963,8.857-5.424,15.876-7.313,15.888-4.276,105.793-28.022,106.7-28.261a2.5,2.5,0,0,1,3.055,1.779,2.5,2.5,0,0,1-1.779,3.055c-.906.239-90.8,23.982-106.677,28.255-7.358,1.98-11.354,4.286-13.411,5.872a10.213,10.213,0,0,0-2.422,2.474,21.513,21.513,0,0,1-.089,6.195,16.394,16.394,0,0,1-8.148,11.952A30.7,30.7,0,0,1-3.394-117.77a9.778,9.778,0,0,0-2.863.483,12.045,12.045,0,0,0-.567,2.294,19.5,19.5,0,0,1-2.015,6.274,12.445,12.445,0,0,1-2.693,3.292,15.058,15.058,0,0,1-4.348,2.574A31.106,31.106,0,0,1-27.8-100.306a5.838,5.838,0,0,0-2.267.284,10.3,10.3,0,0,0-.478,1.666c-.686,2.923-1.833,7.814-9.025,9.828-6.623,1.854-10.068,1.326-12.127,1.01l-.357-.054c-.069.174-.139.354-.2.513a16.624,16.624,0,0,1-4.043,6.579A13.493,13.493,0,0,1-65.8-77.15Z" transform="translate(276.203 324.468)" fill="#faf3e0"/></g></g></svg>